<svg width="62" height="48" fill="none" xmlns="http://www.w3.org/2000/svg">
  <path d="m15.672 6.507-.584.344c-.103.068-.207.137-.24.24-.035.103 0 .481 0 .619.033.447.033.996-.345 1.306-.343.275-.79.171-1.134-.035l-.275-.137v-.31c0-.24.035-.446.035-.652 0-.378-.413-.413-.722-.413-.275 0-.516.035-.79.07-.275.033-.55.102-.79-.07-.31-.206-.345-.584-.345-.928 0-.103.035-.206.07-.275.206-.378.584-.343.927-.412.481-.069.962-.069 1.444-.103.859-.069 1.271-.378 1.993-.756.24-.138.412-.275.722-.275.447 0 .79.584.79.997.034.447-.412.618-.756.79Zm-7.148 4.502c0 .069.034.138.034.24v.482c-.034.447-.172.997-.722.997-.344 0-.687-.07-.825-.413-.137-.275 0-.722-.069-.79-.068-.069-.412-.034-.515-.034-.31.034-.722.103-1.031.034l-.31-.069-.068-.31c-.035-.206-.103-.309-.103-.515a.66.66 0 0 1 .137-.412c.172-.24.412-.24.687-.275 1.066-.137 1.203.069 2.234-.447.24-.137.688-.447.963-.447.446 0 .79.482.79.928 0 .481-.516.687-.894.86a.954.954 0 0 0-.308.171ZM14.847 37.816c-.412 0-.825-.24-1.065-.619a19.869 19.869 0 0 1-2.51-9.692c0-10.963 8.902-19.864 19.866-19.864 10.963 0 19.864 8.901 19.864 19.864 0 2.887-.619 5.671-1.787 8.283a1.18 1.18 0 0 1-1.615.585 1.18 1.18 0 0 1-.585-1.616 17.425 17.425 0 0 0 1.581-7.251c0-9.59-7.801-17.425-17.424-17.425-9.589 0-17.424 7.802-17.424 17.425 0 2.99.756 5.91 2.199 8.488.344.585.103 1.34-.481 1.65a1.06 1.06 0 0 1-.619.172Z" />
  <path d="M49.318 24.584c-.687 0-1.203-.55-1.203-1.203V1.592c0-.481.275-.893.688-1.1.412-.206.927-.137 1.306.172l6.564 5.362c.515.412.584 1.203.171 1.718-.412.516-1.203.584-1.718.172l-4.57-3.746v19.177c-.035.687-.585 1.237-1.238 1.237ZM24.539 30.805c-.31 0-.619-.103-.86-.344l-3.367-3.333a1.203 1.203 0 0 1 0-1.719 1.203 1.203 0 0 1 1.718 0l3.368 3.334a1.203 1.203 0 0 1 0 1.718c-.24.206-.55.344-.86.344Z" />
  <path d="M21.377 30.874c-.31 0-.618-.104-.825-.344a1.203 1.203 0 0 1-.034-1.719l3.265-3.436a1.203 1.203 0 0 1 1.719-.035c.48.447.515 1.238.034 1.719l-3.3 3.47c-.206.241-.515.345-.859.345ZM40.692 30.805c-.31 0-.62-.103-.86-.344l-3.367-3.333a1.203 1.203 0 0 1 0-1.719 1.203 1.203 0 0 1 1.718 0l3.368 3.334a1.203 1.203 0 0 1 0 1.718c-.206.206-.55.344-.86.344Z" />
  <path d="M37.564 30.873c-.31 0-.618-.103-.825-.343a1.203 1.203 0 0 1-.034-1.719l3.3-3.47a1.203 1.203 0 0 1 1.718-.035c.481.447.515 1.237.034 1.718l-3.3 3.471a1.223 1.223 0 0 1-.893.378ZM8.524 42.627c-.79 0-1.547-.55-2.647-1.477-.481-.413-.962-.619-1.409-.55-.515.069-1.031.412-1.478 1.03-.378.55-1.168.654-1.684.276-.55-.378-.653-1.169-.274-1.684.859-1.169 1.958-1.89 3.161-2.028.79-.103 1.994.034 3.3 1.134.481.413.859.722 1.065.825.103-.069.206-.137.275-.206.206-.172.481-.344.79-.585 1.96-1.34 2.853-.893 4.365.07l.206.137c.653.412.825.481.894.481.069-.034.412-.24.722-.412l.515-.344c1.753-1.1 2.956-1.718 5.259-.172 1.512.997 1.512.997 2.611.24.172-.137.378-.274.585-.412 2.027-1.34 3.058-.893 4.57-.103l.31.172c.206.103.378.206.55.31.412.206.825.446.996.48.138-.034.55-.274.928-.515.344-.206.79-.447 1.34-.756 1.684-.893 2.887-.962 5.602 1.1.07.034.516-.069 1.272-.722 1.821-1.65 3.23-.859 4.261-.275.757.447 1.547.894 2.853.86.24 0 .653-.276 1.031-.516.894-.619 2.372-1.615 4.296-.344 2.13 1.41 2.234 1.478 4.57-.103.55-.378 1.204-.515 1.822-.378.86.172 1.65.79 2.337 1.856.379.55.207 1.306-.343 1.684-.55.378-1.306.206-1.684-.344-.378-.55-.653-.756-.756-.79-3.265 2.165-4.434 1.993-7.286.103-.482-.31-.653-.275-1.581.344-.619.412-1.375.928-2.372.928-1.993 0-3.265-.722-4.09-1.204-.893-.515-.893-.515-1.408-.034-2.269 2.062-3.815 1.306-4.365.86-1.925-1.444-2.2-1.307-2.99-.894a28.06 28.06 0 0 0-1.272.722c-1.89 1.1-2.337 1.1-4.296.034-.171-.103-.343-.172-.55-.31l-.309-.171c-1.134-.619-1.134-.619-2.062 0-.206.137-.378.275-.55.378-1.752 1.203-2.715 1.512-5.326-.24-1.1-.757-1.135-.723-2.612.206l-.516.343c-1.512.963-2.268 1.203-4.227-.069l-.24-.137c-.379-.24-.791-.515-.928-.515 0 0-.172.034-.757.412-.275.172-.48.344-.687.481-.687.585-1.237.824-1.787.824Z" />
  <path d="M12.545 47.439c-.756 0-1.478-.619-2.44-1.581-.24-.24-.585-.516-.928-.481-.344.034-.756.412-1.1.962-.344.584-1.1.756-1.684.412-.584-.343-.756-1.1-.412-1.684.756-1.237 1.787-1.993 2.886-2.096.722-.07 1.822.069 2.956 1.203.275.309.515.515.687.653.035 0 .035-.035.035-.035a6.66 6.66 0 0 1 .687-.584c1.787-1.443 2.715-.928 4.055.069l.172.137c.275.207.447.31.55.378.137-.068.31-.206.447-.343l.447-.344c1.34-.997 2.577-1.925 4.811-.172.756.619 1.065.722 1.134.756.138-.069.413-.309.653-.481a3.38 3.38 0 0 1 .516-.412c1.821-1.41 2.852-.963 4.192-.103l.275.171c.172.104.344.207.482.31.24.172.481.309.653.412.137-.103.412-.275.618-.412.31-.207.653-.447 1.134-.756 1.684-1.1 2.887-.86 4.984 1.03.137-.068.412-.24.756-.618 1.718-1.821 3.127-.859 3.986-.275.62.413 1.238.825 2.234.825.103 0 .482-.31.688-.481.721-.585 2.199-1.753 3.986-.344 1.684 1.34 1.684 1.34 3.506-.103a2.132 2.132 0 0 1 1.718-.447c.825.172 1.547.825 2.166 1.959.309.584.103 1.34-.482 1.65-.584.309-1.34.103-1.65-.482a2.871 2.871 0 0 0-.446-.618c-2.75 2.13-3.918 1.855-6.324-.035-.137-.103-.24-.137-.24-.137-.138 0-.516.31-.722.481-.55.447-1.237.997-2.2.997h-.034c-1.752 0-2.852-.756-3.608-1.237-.172-.103-.413-.275-.516-.344-.069.034-.137.103-.275.275-2.13 2.302-3.643 1.237-4.09.859-1.477-1.306-1.58-1.237-2.13-.86-.447.276-.79.516-1.066.723-1.684 1.168-2.199 1.168-3.952.069-.137-.104-.275-.172-.447-.275l-.275-.172c-.274-.172-.618-.412-.756-.412 0 0-.171.034-.653.412-.171.137-.309.24-.481.378-1.65 1.34-2.646 1.512-4.88-.24-.619-.482-.79-.482-.79-.482-.172.034-.62.378-1.032.687l-.447.344c-1.443 1.065-2.233 1.237-3.952-.069l-.206-.137a3.779 3.779 0 0 0-.584-.413c-.07.035-.207.138-.447.31a8.974 8.974 0 0 0-.55.481c-.55.447-1.1.722-1.615.722Z" />
</svg>