<svg viewBox="0 0 30 30" fill="none" xmlns="http://www.w3.org/2000/svg">
  <path d="M10.3 19.679c-.588-.59-1.042-1.17-1.652-1.17-.36 0-.776.206-1.306.736-1.424 1.424-3.132 4.65-2.195 5.587.188.188.463.27.8.27 1.35 0 3.648-1.322 4.787-2.461 1.424-1.427.504-2.025-.433-2.962Zm-3.16 3.158c.345-.732.887-1.606 1.467-2.206l.088.09a25.184 25.184 0 0 0 .653.65c-.58.555-1.458 1.111-2.208 1.466ZM20.103 6.914a2.99 2.99 0 1 0 0 5.982 2.99 2.99 0 0 0 0-5.982Zm0 4.105a1.115 1.115 0 0 1-1.113-1.114c0-.612.501-1.113 1.113-1.113.616 0 1.114.501 1.114 1.113 0 .613-.498 1.114-1.114 1.114Z" fill="url(#a)"/>
  <path d="M25.36 4.614c-.588-.589-1.602-.861-2.844-.861-3.205 0-7.934 1.816-10.834 4.717-.484.483-.9.967-1.257 1.444L8.16 9.182a.498.498 0 0 0-.563.19l-3.506 5.004a.499.499 0 0 0 .255.762l4.775 1.54c.355.915.92 1.758 1.667 2.506.744.744 1.585 1.306 2.493 1.66l1.541 4.77a.499.499 0 0 0 .76.255l5.009-3.507a.496.496 0 0 0 .187-.56l-.726-2.246c.483-.36.967-.777 1.453-1.263 4.025-4.022 6.053-11.481 3.855-13.679Zm-6.427 13.439-1.075.802.413 1.278.413 1.28-2.646 1.852-.967-2.995-.272-.846-.83-.325c-.661-.258-1.285-.677-1.848-1.24-.565-.565-.984-1.192-1.242-1.857l-.322-.832-.85-.275-3.003-.97 1.852-2.646 1.298.42 1.277.412.803-1.075c.316-.422.68-.84 1.08-1.242 2.608-2.607 6.883-4.166 9.508-4.166.955 0 1.412.205 1.517.313.976.976-.032 7.205-3.855 11.025-.408.404-.83.77-1.251 1.087Z" fill="url(#b)"/>
  <defs>
    <linearGradient id="a" x1="4.84" y1="7.25" x2="20.581" y2="22.163" gradientUnits="userSpaceOnUse">
      <stop stop-color="#12D6DF"/>
      <stop offset="1" stop-color="#DB12DF"/>
    </linearGradient>
    <linearGradient id="b" x1="3.952" y1="4.163" x2="23.173" y2="22.39" gradientUnits="userSpaceOnUse">
      <stop stop-color="#12D6DF"/>
      <stop offset="1" stop-color="#DB12DF"/>
    </linearGradient>
  </defs>
</svg>
